<?xml version="1.0" standalone="no"?>
<!DOCTYPE svg PUBLIC "-//W3C//DTD SVG 20010904//EN"
 "http://www.w3.org/TR/2001/REC-SVG-20010904/DTD/svg10.dtd">
<svg version="1.0" xmlns="http://www.w3.org/2000/svg"
 width="96.000000pt" height="96.000000pt" viewBox="0 0 96.000000 96.000000"
 preserveAspectRatio="xMidYMid meet">
<metadata>
Created by potrace 1.14, written by Peter Selinger 2001-2017
</metadata>
<g transform="translate(0.000000,96.000000) scale(0.100000,-0.100000)"
fill="#000000" stroke="none">
<path d="M195 888 c-26 -79 -33 -185 -16 -231 8 -21 2 -35 -44 -98 -52 -72
-53 -74 -30 -77 21 -3 23 -6 15 -28 -17 -44 -13 -57 16 -50 24 6 25 5 22 -26
-3 -33 -3 -33 44 -35 49 -2 107 -26 109 -43 1 -6 2 -13 3 -17 1 -5 6 -30 10
-58 11 -70 30 -102 76 -125 87 -44 190 -11 222 70 9 25 17 60 17 78 2 67 37
95 122 93 l47 -1 -5 37 c-5 34 -4 35 21 29 29 -7 30 -5 17 42 -9 30 -8 32 15
32 24 0 24 0 7 28 -9 15 -33 47 -53 72 -29 36 -35 50 -29 70 20 69 -2 249 -30
242 -7 -1 -44 -24 -84 -50 -57 -38 -77 -46 -97 -41 -32 9 -148 9 -180 0 -19
-5 -40 3 -95 39 -97 64 -95 63 -100 48z m105 -192 c0 -24 -25 -65 -34 -55 -9
9 -22 92 -18 114 4 18 6 17 28 -8 13 -16 24 -38 24 -51z m408 -11 c-11 -50
-22 -62 -43 -45 -22 19 -18 50 12 95 27 39 27 40 33 15 4 -14 2 -43 -2 -65z
m-310 -137 c19 -16 42 -64 42 -88 0 -17 6 -20 40 -20 25 0 40 5 41 13 5 90 58
125 156 103 20 -5 35 -15 39 -29 9 -29 5 -32 -34 -28 l-34 3 26 -38 c29 -43
27 -50 -13 -59 -51 -11 -87 -61 -101 -143 -9 -54 -15 -71 -23 -63 -14 14 -82
14 -108 1 -15 -8 -19 -7 -20 5 -1 8 -2 18 -3 23 -1 4 -6 31 -10 59 -6 42 -15
58 -43 83 -19 17 -48 33 -64 37 -16 3 -29 8 -29 12 0 3 12 24 26 45 l26 38
-41 -4 c-22 -2 -41 -2 -41 -1 0 1 5 13 11 27 18 39 120 54 157 24z"/>
<path d="M350 444 c0 -18 52 -94 61 -89 13 9 11 61 -3 73 -18 13 -58 25 -58
16z"/>
<path d="M570 437 c-25 -13 -37 -45 -26 -73 5 -13 8 -13 20 -2 13 14 46 72 46
83 0 8 -13 6 -40 -8z"/>
</g>
</svg>
