<svg viewBox="0 0 640 613" xmlns="http://www.w3.org/2000/svg"><g fill="#000" fill-rule="nonzero"><path d="M77.613.332C30.683.332 0 31.148 0 71.652c0 39.61 29.77 71.305 75.813 71.305h.89c47.848 0 77.625-31.695 77.625-71.305-.894-40.504-29.777-71.32-76.715-71.32zM8.11 199.313h137.195V612.07H8.109zM482.055 189.625c-74.012 0-123.64 69.547-123.64 69.547v-59.86h-137.2V612.07h137.191v-230.5c0-12.34.895-24.66 4.52-33.484 9.918-24.64 32.488-50.168 70.39-50.168 49.645 0 69.5 37.852 69.5 93.34V612.07H640V375.402c0-126.78-67.688-185.777-157.945-185.777z"/></g></svg>